<?xml version="1.0" encoding="UTF-8" standalone="no"?>
<!-- Created with Inkscape (http://www.inkscape.org/) -->

<svg
   width="311.21719mm"
   height="115.39233mm"
   viewBox="0 0 311.21719 115.39233"
   version="1.1"
   id="svg5"
   inkscape:version="1.1 (c68e22c387, 2021-05-23)"
   sodipodi:docname="STYRIA-Logo.svg"
   xmlns:inkscape="http://www.inkscape.org/namespaces/inkscape"
   xmlns:sodipodi="http://sodipodi.sourceforge.net/DTD/sodipodi-0.dtd"
   xmlns="http://www.w3.org/2000/svg"
   xmlns:svg="http://www.w3.org/2000/svg">
  <sodipodi:namedview
     fit-margin-top="10"
     fit-margin-left="10"
     fit-margin-right="10"
     fit-margin-bottom="10"
     inkscape:zoom="1"
     inkscape:cx="424.5"
     inkscape:cy="266"
     inkscape:window-width="1920"
     inkscape:window-height="996"
     inkscape:window-x="-8"
     inkscape:window-y="-8"
     inkscape:window-maximized="1"
     id="namedview4456"
     pagecolor="#ffffff"
     bordercolor="#666666"
     borderopacity="1.0"
     inkscape:pageshadow="2"
     inkscape:pageopacity="0.0"
     inkscape:pagecheckerboard="0"
     inkscape:document-units="mm" />
  <defs
     id="defs4458" />
  <g
     transform="translate(7.4748047,-77.97775)"
     id="g4474">
    <path
       d="m 2.5251953,122.75886 c 0.071088,13.01595 10.3847187,18.13722 22.0490197,18.13722 11.167176,0 22.120598,-4.12506 22.120598,-16.99932 0,-9.17525 -7.397065,-12.58943 -14.723042,-14.65196 -7.397556,-2.06253 -14.723533,-2.7739 -14.723533,-6.68569 0,-3.343097 3.556357,-4.338818 6.401344,-4.338818 4.054462,0 8.393276,1.493337 8.180013,6.116988 H 45.058811 C 44.987723,92.885757 34.816758,87.97775 24.716881,87.97775 c -9.531173,0 -20.697859,4.338814 -20.697859,15.4349 0,9.31742 7.610329,12.58894 14.865218,14.65196 7.325978,2.06253 14.580867,2.91607 14.580867,7.39706 0,3.76962 -4.12506,5.19236 -8.108435,5.19236 -5.618886,0 -9.317419,-1.92035 -9.601771,-7.89517 z"
       id="path4460" />
    <path
       d="M 96.949115,89.044848 H 53.419779 v 11.380442 h 15.14957 v 39.40378 h 13.229706 v -39.40378 h 15.15006 z"
       id="path4462" />
    <path
       d="M 153.68227,89.044848 H 138.67439 L 128.57451,109.67162 118.47463,89.044848 h -15.00788 l 18.49315,31.864542 v 18.91968 h 13.22971 v -18.91968 z"
       id="path4464" />
    <path
       d="m 160.20015,139.82927 h 13.22971 v -18.49315 h 10.02878 c 6.18809,0 7.04163,5.26344 7.39707,10.38472 0.14218,1.42273 0.35544,6.40134 1.49383,8.10843 h 13.08704 c -1.77818,-1.84927 -1.99145,-9.31742 -2.13362,-11.45153 -0.42702,-4.83643 -1.99144,-10.88233 -7.39707,-12.1624 v -0.14218 c 5.33454,-2.06302 7.96577,-7.25489 7.96577,-12.7316 0,-10.242543 -8.81931,-14.296516 -17.78129,-14.296516 h -25.89022 z m 13.22971,-40.186734 h 10.5264 c 3.69853,0 6.68619,1.707094 6.68619,5.477204 0,3.84071 -2.13411,5.97432 -6.117,5.97432 h -11.09559 z"
       id="path4466" />
    <path
       d="m 218.37115,139.82927 h 13.2297 V 89.045044 h -13.2297 z"
       id="path4468" />
    <path
       d="m 267.92325,103.1279 h 0.14218 l 5.61888,17.78178 h -11.52212 z m -25.60538,36.70146 h 13.58515 l 3.20043,-9.10415 h 17.71069 l 3.12934,9.10415 h 13.7989 L 274.75161,89.044649 h -13.44297 z"
       id="path4470" />
    <path
       d="m 5.5011805,182.87835 h 3.4406551 v -15.93007 h 0.057361 l 5.7247824,15.93007 h 2.977849 l 5.724293,-15.93007 h 0.05785 v 15.93007 h 3.440655 v -20.64246 h -5.030573 l -5.551231,16.16098 h -0.05785 L 10.589604,162.23589 H 5.5011805 Z m 34.4330245,0 h 15.062794 v -3.12248 H 43.547923 v -6.04247 h 10.408251 v -2.94892 H 43.547923 v -5.40611 h 11.246598 v -3.12248 H 39.934205 Z M 70.435333,165.18481 H 73.9912 c 5.666932,0 6.880819,3.23769 6.880819,7.37207 0,4.13437 -1.213887,7.37255 -6.880819,7.37255 h -3.555867 z m -3.614208,17.69354 h 8.558005 c 6.360652,0 9.107097,-4.62562 9.107097,-10.32147 0,-5.69537 -2.746445,-10.32099 -9.107097,-10.32099 h -8.558005 z m 29.547079,0 h 3.613718 v -20.64246 h -3.613718 z m 24.083116,-17.08659 h 0.0868 l 3.09355,8.87569 h -6.30281 z m -9.77189,17.08659 h 3.72942 l 1.93702,-5.46445 h 8.23982 l 1.93703,5.46445 h 3.87404 l -7.95057,-20.64246 h -3.84512 z m 65.07878,-10.87057 h -8.78892 v 2.74645 h 5.49289 c -0.0579,3.4985 -2.08165,5.72429 -5.78215,5.66644 -4.42362,0 -6.27387,-3.90297 -6.27387,-7.86379 0,-3.96083 1.85025,-7.8638 6.27387,-7.8638 2.60182,0 4.97273,1.38793 5.31983,4.10545 h 3.52694 c -0.54909,-4.65454 -4.33636,-7.05437 -8.84677,-7.05437 -6.18709,0 -9.88759,4.91487 -9.88759,10.81272 0,5.89784 3.7005,10.8132 9.88759,10.8132 2.51505,0 4.27901,-0.72313 6.21603,-2.92049 l 0.54909,2.42876 h 2.31306 z m 16.21883,-6.82297 h 5.86892 c 1.87917,0 3.58479,0.52017 3.58479,3.1514 0,2.16794 -1.24281,3.29554 -3.52694,3.29554 h -5.92677 z m -3.61372,17.69354 h 3.61372 v -8.49966 h 5.31982 c 3.32447,0 4.10496,1.67669 4.10496,5.46396 0,1.0119 0,2.1395 0.54959,3.0357 h 3.87404 c -0.78049,-0.83835 -1.1276,-3.0357 -1.1276,-5.43553 0,-3.26661 -1.82132,-4.19173 -3.06462,-4.36529 v -0.0579 c 0.66528,-0.2314 3.41173,-1.2433 3.41173,-5.20412 0,-3.49802 -2.31306,-5.57967 -6.82297,-5.57967 h -9.85867 z m 37.81534,-21.13419 c -6.18661,0 -9.8876,4.91487 -9.8876,10.81272 0,5.89784 3.70099,10.8132 9.8876,10.8132 6.1871,0 9.88759,-4.91536 9.88759,-10.8132 0,-5.89785 -3.70049,-10.81272 -9.88759,-10.81272 m 0,2.94892 c 4.42363,0 6.27387,3.90297 6.27387,7.8638 0,3.96082 -1.85024,7.86379 -6.27387,7.86379 -4.42314,0 -6.27339,-3.90297 -6.27339,-7.86379 0,-3.96083 1.85025,-7.8638 6.27339,-7.8638 m 21.62543,10.75487 c 0,5.2909 3.38281,7.92213 8.47123,7.92213 5.08842,0 8.47074,-2.63123 8.47074,-7.92213 v -13.21206 h -3.61372 v 12.0271 c 0,2.77537 -0.17355,5.98462 -4.85702,5.98462 -4.68347,0 -4.85702,-3.20925 -4.85702,-5.98462 v -12.0271 h -3.61421 z m 33.3922,-10.26314 h 5.34875 c 1.9081,0 3.55587,0.69372 3.55587,3.41124 0,2.60231 -1.99487,3.41173 -3.61372,3.41173 h -5.2909 z m -3.61372,17.69354 h 3.61372 v -7.92164 h 5.49338 c 5.89785,0.0289 7.02545,-3.78727 7.02545,-6.33173 0,-2.57289 -1.1276,-6.38909 -7.02545,-6.38909 h -9.1071 z"
       id="path4472" />
  </g>
</svg>
